# xmcd CD database file
#
# Track frame offsets:
#	150
#	10030
#	28065
#	46730
#	69492
#	90345
#	112087
#	140040
#	161442
#	183150
#	199585
#	216212
#	234322
#	254505
#
# Disc length: 3656 seconds
#
# Revision: 0
# Processed by: cddbd v1.5.1PL2 Copyright (c) Steve Scherf et al.
# Submitted via: CDex 1.51
#
DISCID=b70e460e
DTITLE=時任三郎 - ZERO
DYEAR=1991
DGENRE=JPop
TTITLE0=勇気のしるし〜リゲインのテーマ〜
TTITLE1=CARRY ON
TTITLE2=川の流れを抱いて眠りたい
TTITLE3=ウェディング・リバー
TTITLE4=季節風
TTITLE5=BAY SIDE STREET
TTITLE6=STILL I LOVE YOU
TTITLE7=Sittin' on the Moonlight Beach
TTITLE8=恋人達
TTITLE9=BEST FRIEND
TTITLE10=WALKIN' IN THE RAIN
TTITLE11=Heart and Soul
TTITLE12=RIVER
TTITLE13=白い絵の具とオーケストラ
EXTD=YEAR: 1991
EXTT0=
EXTT1=
EXTT2=
EXTT3=
EXTT4=
EXTT5=
EXTT6=
EXTT7=
EXTT8=
EXTT9=
EXTT10=
EXTT11=
EXTT12=
EXTT13=
PLAYORDER=
